<?xml version="1.0" standalone="no"?>
<!DOCTYPE svg PUBLIC "-//W3C//DTD SVG 20010904//EN"
 "http://www.w3.org/TR/2001/REC-SVG-20010904/DTD/svg10.dtd">
<svg version="1.0" xmlns="http://www.w3.org/2000/svg"
 width="537.000000pt" height="437.000000pt" viewBox="0 0 537.000000 437.000000"
 preserveAspectRatio="xMidYMid meet">
<metadata>
Created by potrace 1.15, written by Peter Selinger 2001-2017
</metadata>
<g transform="translate(0.000000,437.000000) scale(0.100000,-0.100000)"
fill="#ea4b33" stroke="none">
<path d="M2915 4355 c-128 -21 -284 -61 -395 -102 -154 -57 -369 -166 -491
-249 -117 -79 -219 -160 -219 -174 0 -5 24 -11 53 -15 75 -10 208 -40 306 -70
l84 -25 46 29 c132 85 395 189 570 225 414 88 787 41 1181 -146 229 -109 430
-266 591 -460 142 -172 164 -223 135 -321 -39 -133 -192 -202 -319 -144 -44
20 -66 39 -114 103 -166 218 -416 396 -678 482 -148 49 -212 57 -425 56 -166
0 -209 -3 -285 -22 -101 -25 -215 -63 -215 -71 0 -4 25 -26 56 -51 31 -25 96
-87 146 -138 l89 -94 105 12 c360 41 699 -111 930 -417 95 -126 200 -197 342
-234 321 -82 659 126 727 447 40 191 -4 358 -142 540 -211 277 -461 481 -778
635 -183 88 -349 147 -526 185 -114 24 -146 27 -404 30 -209 2 -303 -1 -370
-11z"/>
<path d="M1465 3623 c-375 -47 -686 -191 -955 -439 -346 -321 -548 -848 -501
-1306 51 -507 308 -939 721 -1215 322 -215 725 -310 1100 -258 540 75 997 399
1238 880 257 512 221 1117 -96 1605 -240 370 -607 618 -1054 711 -98 20 -367
33 -453 22z"/>
<path d="M4676 2194 c-129 -31 -259 -121 -327 -226 -83 -130 -127 -274 -165
-543 -54 -388 -77 -496 -112 -510 -9 -3 -78 -9 -152 -12 -204 -8 -411 19 -625
83 -49 14 -100 29 -111 31 -18 4 -34 -11 -85 -79 -34 -45 -87 -111 -117 -146
-32 -37 -51 -67 -46 -72 17 -17 257 -97 369 -123 113 -27 325 -57 405 -57 l45
0 -50 -32 c-110 -69 -279 -120 -458 -139 -175 -18 -395 9 -584 73 l-62 21
-143 -71 c-79 -39 -172 -81 -208 -93 -36 -12 -69 -26 -74 -30 -14 -12 260
-142 385 -183 213 -69 286 -80 554 -81 253 0 304 6 462 50 280 80 537 249 698
459 53 70 59 75 118 91 168 47 376 149 522 257 145 108 292 282 370 441 60
123 85 225 85 356 0 177 -47 301 -154 406 -103 100 -224 146 -387 144 -52 0
-121 -7 -153 -15z m183 -334 c100 -19 150 -83 151 -192 0 -171 -189 -437 -402
-565 -76 -46 -92 -51 -84 -27 9 31 44 237 70 414 14 91 34 192 46 224 34 88
92 145 161 155 4 1 30 -3 58 -9z"/>
</g>
</svg>
