<?xml version="1.0" standalone="no"?>
<!DOCTYPE svg PUBLIC "-//W3C//DTD SVG 1.1//EN" "http://www.w3.org/Graphics/SVG/1.1/DTD/svg11.dtd" >
<svg xmlns="http://www.w3.org/2000/svg">
<metadata>Generated by IcoMoon</metadata>
<defs>
<font id="icomoon" horiz-adv-x="1024">
<font-face units-per-em="1024" ascent="960" descent="-64" />
<missing-glyph horiz-adv-x="1024" />
<glyph unicode="&#x20;" horiz-adv-x="512" d="" />
<glyph unicode="&#xe900;" glyph-name="cmt" d="M757.988 77.881c0.114 0 0.228 0.114 0.341 0.114-0.114 0-0.228-0.114-0.341-0.114zM537.145 76.629c0.114 0 0.228 0.114 0.341 0.114-0.114 0-0.228 0-0.341-0.114zM370.688-39.538c-103.424 30.265-196.38 94.663-261.916 181.248-67.584 89.316-103.31 195.925-103.31 308.224 0 281.372 228.921 510.293 510.293 510.293 153.941 0 297.984-68.38 395.492-187.733 23.097-28.331 45.739-59.847 45.739-106.155 0-130.958-167.822-186.709-246.215-81.806v0c-43.691 63.488-116.508 102.286-194.901 102.286-130.617 0-236.885-106.268-236.885-236.885 0-84.537 47.787-196.608 181.703-257.593 72.704-33.109 166.343-51.086 253.497-38.571 25.145 62.236 14.677 164.523 52.907 233.586 59.62 107.748 249.060 89.316 241.892-66.901-4.096-88.633-89.202-201.273-242.916-238.478-82.83-126.18-250.425-164.068-395.378-121.515zM515.755 879.9c-236.999 0-429.966-192.967-429.966-429.966 0-189.668 126.407-359.196 307.428-412.217 64.967-19.001 169.529-24.462 249.856 31.858-73.5 1.934-149.049 19.115-215.836 49.607-168.732 76.8-228.807 221.298-228.807 330.752 0 174.99 142.336 317.326 317.326 317.326 103.196 0 199.794-50.062 259.186-134.144 32.199-43.691 101.604-20.935 101.604 33.337 0 18.318-8.875 32.427-27.534 55.296-82.148 100.466-203.548 158.151-333.255 158.151zM880.299 378.823c-48.811 0-48.697-65.764-56.775-110.478-1.479-8.42-9.444-59.62-15.929-86.926 80.441 38.571 116.85 105.813 121.060 138.809 4.665 35.84-10.468 58.596-48.356 58.596zM712.363 150.812c0 0 0 0.114 0.114 0.114-0.114 0-0.114 0-0.114-0.114zM712.363 150.812c-0.455-0.796-0.91-1.479-1.365-2.276 0.455 0.796 0.91 1.593 1.365 2.276zM713.842 153.316v0zM712.476 150.926c0.455 0.796 0.91 1.479 1.365 2.276-0.455-0.683-0.91-1.479-1.365-2.276zM861.184 705.934c3.186-4.437 5.803-8.533 7.964-12.516 0 0 0 0 0 0s0 0 0 0c1.365-2.503 2.617-5.12 3.641-7.509v0 0c0.796-1.934 1.365-3.755 1.934-5.689v0 0c0.114-0.569 0.341-1.138 0.455-1.707v0 0c0.455-2.048 0.91-3.982 1.138-6.030v0 0c0.228-1.934 0.341-3.982 0.341-6.030 0-54.272-69.404-77.028-101.604-33.337-59.392 84.082-155.989 134.144-259.186 134.144-23.097 0-45.625-2.503-67.243-7.282v0c0 0 0 0 0 0l10.126-80.213c18.318 4.551 37.433 7.054 57.116 7.054 78.393 0 151.211-38.798 194.901-102.286v0c39.253-52.452 100.693-64.74 152.462-47.559v0c0 0 0 0 0 0s0 0 0 0c74.297 59.62 29.468 128.683-2.048 168.96v0zM712.363 155.022c0 0 0 0.114 0.114 0.114-0.114-0.114-0.114-0.114-0.114-0.114zM712.363 155.022c-0.455-0.796-0.91-1.479-1.365-2.276 0.455 0.683 0.91 1.479 1.365 2.276zM713.842 157.412v0zM712.476 155.136c0.455 0.796 0.91 1.479 1.365 2.276-0.455-0.796-0.91-1.593-1.365-2.276zM829.554 198.827v0 0z" />
<glyph unicode="&#xe901;" glyph-name="eth" horiz-adv-x="629" d="M314.223 960l-6.851-23.329v-676.945l6.851-6.851 314.223 185.744zM314.223 960l-314.223-521.381 314.223-185.744v328.564zM314.223 193.375l-3.855-4.715v-241.143l3.855-11.296 314.42 442.8zM314.223-63.779v257.154l-314.223 185.646zM0 438.619l314.223-185.744v328.564z" />
<glyph unicode="&#xe902;" glyph-name="etc" horiz-adv-x="632" d="M0.036 447.457l318.123 169.766 314.021-168.533-313.749-169.912zM0.036 447.457l318.123 169.766 314.021-168.533-313.749-169.912zM318.159 617.223l314.021-168.533-313.749-169.912zM318.159 421.421l314.021 27.268-313.749-169.912-0.273 142.644zM318.158 421.421l-318.122 26.036 317.85-168.68 0.273 142.644zM0 402.312c111.433-59.106 227.547-121.059 317.447-168.96l314.851 168.912c-113.998-169.398-208.955-310.304-314.852-466.265-106.029 155.634-223.188 327.421-317.445 466.312zM0 402.312c111.433-59.106 227.547-121.059 317.447-168.96l314.851 168.912c-113.998-169.398-208.955-310.304-314.852-466.265-106.029 155.634-223.188 327.421-317.445 466.312zM317.447 233.352l314.851 168.912c-113.998-169.398-314.852-466.265-314.852-466.265zM317.447 233.352l314.851 168.912c-113.998-169.398-208.955-310.304-314.852-466.265zM317.384 664.434l-317.347-167.109 315.969 462.674 316.172-463.685zM317.385 664.434l-1.378 295.566 316.172-463.685z" />
<glyph unicode="&#xe903;" glyph-name="venus" horiz-adv-x="1258" d="M683.057 956.485c-29.994-4.921-66.548-14.294-92.558-23.901-36.086-13.357-86.466-38.898-115.054-58.347-27.416-18.512-51.317-37.492-51.317-40.773 0-1.172 5.624-2.578 12.419-3.515 17.574-2.343 48.74-9.373 71.703-16.403l19.683-5.858 10.779 6.795c30.931 19.918 92.558 44.287 133.565 52.723 97.011 20.621 184.414 9.607 276.738-34.211 53.66-25.541 100.76-62.33 138.486-107.789 33.274-40.304 38.429-52.254 31.634-75.218-9.139-31.165-44.99-47.334-74.75-33.743-10.31 4.686-15.465 9.139-26.713 24.135-38.898 51.083-97.479 92.793-158.872 112.945-34.68 11.482-49.677 13.357-99.588 13.122-38.898 0-48.974-0.703-66.783-5.155-23.667-5.858-50.38-14.762-50.38-16.637 0-0.937 5.858-6.092 13.122-11.951s22.495-20.386 34.211-32.337l20.855-22.027 24.604 2.812c84.357 9.607 163.793-26.010 217.922-97.714 22.261-29.525 46.865-46.162 80.139-54.832 75.218-19.215 154.42 29.525 170.354 104.743 9.373 44.756-0.937 83.888-33.274 126.535-49.443 64.908-108.024 112.71-182.305 148.796-42.881 20.621-81.779 34.446-123.255 43.35-26.713 5.624-34.211 6.327-94.667 7.030-48.974 0.469-71-0.234-86.7-2.578zM343.286 784.959c-87.872-11.013-160.747-44.756-223.78-102.869-81.076-75.218-128.41-198.708-117.397-306.028 11.951-118.803 72.172-220.031 168.948-284.705 75.453-50.38 169.886-72.641 257.757-60.456 126.535 17.574 233.622 93.496 290.094 206.206 60.222 119.974 51.786 261.741-22.495 376.092-56.238 86.7-142.235 144.813-246.978 166.605-22.964 4.686-85.997 7.733-106.149 5.155zM1095.703 450.109c-30.228-7.264-60.69-28.353-76.624-52.957-19.449-30.462-29.759-64.205-38.664-127.238-12.654-90.918-18.043-116.225-26.244-119.506-2.109-0.703-18.277-2.109-35.617-2.812-47.802-1.875-96.308 4.452-146.453 19.449-11.482 3.281-23.432 6.795-26.010 7.264-4.218 0.937-7.967-2.578-19.918-18.512-7.967-10.545-20.386-26.010-27.416-34.211-7.498-8.67-11.951-15.7-10.779-16.871 3.984-3.984 60.222-22.73 86.466-28.822 26.479-6.327 76.156-13.357 94.902-13.357h10.545l-11.716-7.498c-25.776-16.168-65.377-28.119-107.321-32.571-41.007-4.218-92.558 2.109-136.846 17.106l-14.528 4.921-33.508-16.637c-18.512-9.139-40.304-18.98-48.74-21.792s-16.168-6.092-17.34-7.030c-3.281-2.812 60.924-33.274 90.215-42.881 49.911-16.168 67.017-18.746 129.816-18.98 59.284 0 71.235 1.406 108.258 11.716 65.611 18.746 125.832 58.347 163.559 107.555 12.419 16.403 13.825 17.574 27.65 21.324 39.367 11.013 88.106 34.914 122.318 60.222 33.977 25.307 68.423 66.080 86.7 103.337 14.059 28.822 19.918 52.723 19.918 83.42 0 41.476-11.013 70.532-36.086 95.136-24.135 23.432-52.489 34.211-90.684 33.743-12.185 0-28.353-1.64-35.852-3.515zM1138.585 371.844c23.432-4.452 35.149-19.449 35.383-44.99 0-40.070-44.287-102.4-94.199-132.394-17.809-10.779-21.558-11.951-19.683-6.327 2.109 7.264 10.31 55.535 16.403 97.011 3.281 21.324 7.967 44.99 10.779 52.489 7.967 20.621 21.558 33.977 37.726 36.32 0.937 0.234 7.030-0.703 13.591-2.109z" />
<glyph unicode="&#xe904;" horiz-adv-x="985" d="M933.181 251.096l-59.461-201.047-116.729 31.924z" />
<glyph unicode="&#xe905;" horiz-adv-x="985" d="M756.99 81.972l112.586 154.258 63.604 14.865z" />
<glyph unicode="&#xe906;" horiz-adv-x="985" d="M845.695 402.673l87.486-151.577-63.604-14.865zM845.695 402.673l56.293 38.991 31.193-190.568z" />
<glyph unicode="&#xe907;" horiz-adv-x="985" d="M774.049 517.209l161.812 66.285-8.042-36.31zM922.702 503.562l-148.653 13.647 153.771 29.974z" />
<glyph unicode="&#xe908;" glyph-name="pen" d="M1018.17 668.11l-286.058 286.058c-9.334 9.334-21.644 7.234-27.356-4.666l-38.354-79.904 267.198-267.198 79.904 38.354c11.9 5.712 14 18.022 4.666 27.356zM615.384 824.616l-263.384-21.95c-17.5-2.166-32.080-5.898-37.090-28.752-0.006-0.024-0.012-0.042-0.018-0.066-71.422-343.070-314.892-677.848-314.892-677.848l57.374-57.374 271.986 271.99c-5.996 12.53-9.36 26.564-9.36 41.384 0 53.020 42.98 96 96 96s96-42.98 96-96-42.98-96-96-96c-14.82 0-28.852 3.364-41.384 9.36l-271.988-271.986 57.372-57.374c0 0 334.778 243.47 677.848 314.892 0.024 0.006 0.042 0.012 0.066 0.018 22.854 5.010 26.586 19.59 28.752 37.090l21.95 263.384-273.232 273.232z" />
<glyph unicode="&#xe909;" horiz-adv-x="985" d="M922.702 503.562l-20.714-61.898-127.939 75.545zM955.113 568.141l-27.294-20.958 8.042 36.31zM922.702 503.562l5.118 43.621 21.689-18.033z" />
<glyph unicode="&#xe90a;" horiz-adv-x="985" d="M631.488 130.955l40.453-12.916 85.049-36.067z" />
<glyph unicode="&#xe90b;" horiz-adv-x="985" d="M901.988 441.664l20.714 61.898 17.79-13.647zM901.988 441.664l-167.905 55.318 39.966 20.227z" />
<glyph unicode="&#xe90c;" horiz-adv-x="985" d="M814.015 707.046l-39.966-189.837-39.966-20.227z" />
<glyph unicode="&#xe90d;" horiz-adv-x="985" d="M935.861 583.494l-161.812-66.285 39.966 189.837z" />
<glyph unicode="&#xe90e;" horiz-adv-x="985" d="M814.015 707.046l168.88 19.495-47.033-143.048z" />
<glyph unicode="&#xe90f;" horiz-adv-x="985" d="M901.988 441.664l-56.293-38.991-111.612 94.309z" />
<glyph unicode="&#xe910;" horiz-adv-x="985" d="M975.583 863.254l7.311-136.712-168.88-19.495z" />
<glyph unicode="&#xe911;" horiz-adv-x="985" d="M975.583 863.254l-337.515-245.399-4.386 166.443z" />
<glyph unicode="&#xe912;" horiz-adv-x="985" d="M382.677 804.28l251.004-19.983 4.386-166.443z" />
<glyph unicode="&#xe913;" horiz-adv-x="985" d="M734.083 496.982l-96.015 120.872 175.947 89.192z" />
<glyph unicode="&#xe914;" horiz-adv-x="985" d="M734.083 496.982l111.612-94.309-156.695-17.302z" />
<glyph unicode="&#xe915;" horiz-adv-x="985" d="M689 385.371l-50.932 232.484 96.015-120.872z" />
<glyph unicode="&#xe916;" horiz-adv-x="985" d="M814.015 707.046l-175.947-89.192 337.515 245.399z" />
<glyph unicode="&#xe917;" horiz-adv-x="985" d="M384.87 85.871l79.688-83.099-108.444 98.696z" />
<glyph unicode="&#xe918;" horiz-adv-x="985" d="M756.99 81.972l37.772 143.535 74.814 10.723z" />
<glyph unicode="&#xe919;" horiz-adv-x="985" d="M61.733 485.772l137.931 144.998-120.141-127.695z" />
<glyph unicode="&#xe91a;" horiz-adv-x="985" d="M869.577 236.23l-74.814-10.723 50.932 177.165zM638.068 617.854l-134.275 4.386-121.116 182.039z" />
<glyph unicode="&#xe91b;" horiz-adv-x="985" d="M845.695 402.673l-50.932-177.165-4.143 86.511z" />
<glyph unicode="&#xe91c;" horiz-adv-x="985" d="M689 385.371l156.695 17.302-55.075-90.654z" />
<glyph unicode="&#xe91d;" horiz-adv-x="985" d="M503.793 622.241l134.275-4.386 50.932-232.484z" />
<glyph unicode="&#xe91e;" horiz-adv-x="985" d="M503.793 622.241l-362.372 335.322 241.257-153.283zM382.433 34.94l-314.852-97.477-62.873 240.038z" />
<glyph unicode="&#xe91f;" horiz-adv-x="985" d="M108.522 425.824l118.922 93.335 99.671-23.151z" />
<glyph unicode="&#xe920;" horiz-adv-x="985" d="M327.115 496.008l-99.671 23.151 53.369 220.299z" />
<glyph unicode="&#xe921;" horiz-adv-x="985" d="M79.522 503.075l147.922 16.084-118.922-93.335z" />
<glyph unicode="&#xe922;" horiz-adv-x="985" d="M790.62 312.019l-61.411 30.949-40.209 42.403z" />
<glyph unicode="&#xe923;" horiz-adv-x="985" d="M79.522 503.075l-10.479 55.318 158.401-39.235z" />
<glyph unicode="&#xe924;" horiz-adv-x="985" d="M716.537 273.272l12.672 69.696 61.411-30.949z" />
<glyph unicode="&#xe925;" horiz-adv-x="985" d="M794.763 225.508l-78.226 47.764 74.083 38.747z" />
<glyph unicode="&#xe926;" horiz-adv-x="985" d="M227.444 519.158l-158.401 39.235-12.916 46.545zM280.813 739.457l-53.369-220.299-171.317 85.78zM280.813 739.457l222.98-117.217-176.678-126.233z" />
<glyph unicode="&#xe927;" horiz-adv-x="985" d="M327.115 496.008l176.678 126.233 78.713-240.525zM582.506 381.715l-244.181 5.118-11.21 109.175z" />
<glyph unicode="&#xe928;" horiz-adv-x="985" d="M108.522 425.824l218.593 70.184 11.21-109.175zM689 385.371l-106.494-3.655-78.713 240.525z" />
<glyph unicode="&#xe929;" glyph-name="file-play" d="M384 576l320-224-320-224v448zM917.806 730.924c-22.212 30.292-53.174 65.7-87.178 99.704s-69.412 64.964-99.704 87.178c-51.574 37.82-76.592 42.194-90.924 42.194h-496c-44.112 0-80-35.888-80-80v-864c0-44.112 35.888-80 80-80h736c44.112 0 80 35.888 80 80v624c0 14.332-4.372 39.35-42.194 90.924zM785.374 785.374c30.7-30.7 54.8-58.398 72.58-81.374h-153.954v153.946c22.984-17.78 50.678-41.878 81.374-72.572zM896 16c0-8.672-7.328-16-16-16h-736c-8.672 0-16 7.328-16 16v864c0 8.672 7.328 16 16 16 0 0 495.956 0.002 496 0v-224c0-17.672 14.326-32 32-32h224v-624z" />
<glyph unicode="&#xe92a;" horiz-adv-x="985" d="M729.209 342.968l-12.672-69.696-27.537 112.099z" />
<glyph unicode="&#xe92b;" horiz-adv-x="985" d="M141.421 957.563l362.372-335.322-222.98 117.217z" />
<glyph unicode="&#xe92c;" glyph-name="copy" d="M640 704v256h-448l-192-192v-576h384v-256h640v768h-384zM192 869.49v-101.49h-101.49l101.49 101.49zM64 256v448h192v192h320v-192l-192-192v-256h-320zM576 613.49v-101.49h-101.49l101.49 101.49zM960 0h-512v448h192v192h320v-640z" />
<glyph unicode="&#xe92d;" horiz-adv-x="985" d="M4.709 177.5l305.592 12.672 72.133-155.233z" />
<glyph unicode="&#xe92e;" horiz-adv-x="985" d="M382.433 34.94l-72.133 155.233 150.115 7.311z" />
<glyph unicode="&#xe92f;" horiz-adv-x="985" d="M716.537 273.272l78.226-47.764 43.134-101.62zM338.325 386.833l-333.616-209.333 103.813 248.324zM310.3 190.172l-305.592-12.672 333.616 209.333zM689 385.371l19.983-72.621-96.503-5.605zM612.48 307.145l-29.974 74.57 106.494 3.655z" />
<glyph unicode="&#xe930;" horiz-adv-x="985" d="M464.558 2.772l-82.125 32.168 285.609-48.008z" />
<glyph unicode="&#xe931;" horiz-adv-x="985" d="M108.522 425.824l-46.789 59.949 17.79 17.302z" />
<glyph unicode="&#xe932;" horiz-adv-x="985" d="M700.453 22.511l-32.411-35.579-285.609 48.008z" />
<glyph unicode="&#xe933;" horiz-adv-x="985" d="M715.806 109.753l-333.373-74.814 77.982 162.544z" />
<glyph unicode="&#xe934;" horiz-adv-x="985" d="M382.433 34.94l333.373 74.814-15.353-87.242z" />
<glyph unicode="&#xe935;" horiz-adv-x="985" d="M56.128 604.939l-10.966 187.4 235.652-52.881zM79.522 503.075l-32.411 32.899 21.932 22.42z" />
<glyph unicode="&#xe936;" horiz-adv-x="985" d="M527.918 333.464l54.587 48.251-7.798-117.948z" />
<glyph unicode="&#xe937;" horiz-adv-x="985" d="M582.506 381.715l-54.587-48.251-79.444-41.184z" />
<glyph unicode="&#xe938;" horiz-adv-x="985" d="M837.897 123.888l-14.865 10.966-106.494 138.418z" />
<glyph unicode="&#xe939;" horiz-adv-x="985" d="M448.474 292.28l-110.149 94.553 244.181-5.118z" />
<glyph unicode="&#xe93a;" horiz-adv-x="985" d="M574.708 263.768l7.798 117.948 29.974-74.57z" />
<glyph unicode="&#xe93b;" horiz-adv-x="985" d="M36.389 586.418l19.739 18.521 12.916-46.545z" />
<glyph unicode="&#xe93c;" horiz-adv-x="985" d="M574.708 263.768l-126.233 28.512 79.444 41.184z" />
<glyph unicode="&#xe93d;" horiz-adv-x="985" d="M280.813 739.457l-235.652 52.881 96.259 165.224z" />
<glyph unicode="&#xe93e;" horiz-adv-x="985" d="M668.042-13.068l13.403-36.554-216.887 52.394z" />
<glyph unicode="&#xe93f;" horiz-adv-x="985" d="M460.415 197.483l-11.941 94.797 126.233-28.512z" />
<glyph unicode="&#xe940;" horiz-adv-x="985" d="M338.325 386.833l110.149-94.553 11.941-94.797z" />
<glyph unicode="&#xe941;" horiz-adv-x="985" d="M612.48 307.145l96.503 5.605 114.049-177.896zM338.325 386.833l122.090-189.35-150.115-7.311z" />
<glyph unicode="&#xe942;" horiz-adv-x="985" d="M612.48 307.145l119.897-182.526-157.67 139.149z" />
<glyph unicode="&#xe943;" horiz-adv-x="985" d="M574.708 263.768l157.67-139.149-16.571-14.865z" />
<glyph unicode="&#xe944;" horiz-adv-x="985" d="M715.806 109.753l-255.391 87.73 114.292 66.285zM823.031 134.854l-90.654-10.235-119.897 182.526z" />
<glyph unicode="&#xe945;" horiz-adv-x="985" d="M846.913 49.074l-38.991-78.226-126.477-20.47zM681.445-49.622l-13.403 36.554 32.411 35.579z" />
<glyph unicode="&#xe946;" horiz-adv-x="985" d="M700.453 22.511l23.882 9.504-42.89-81.637zM681.445-49.622l42.89 81.637 122.578 17.059z" />
<glyph unicode="&#xe947;" horiz-adv-x="985" d="M823.031 134.854l29.974-18.277-91.141-10.966z" />
<glyph unicode="&#xe948;" horiz-adv-x="985" d="M761.864 105.611l-29.487 19.008 90.654 10.235zM751.385 91.233l110.881 13.403-15.353-55.562z" />
<glyph unicode="&#xe949;" horiz-adv-x="985" d="M846.913 49.074l-122.578-17.059 27.050 59.218zM724.335 32.015l-23.882-9.504 15.353 87.242zM715.806 109.753l16.571 14.865 29.487-19.008zM853.006 116.577l9.26-11.941-110.881-13.403z" />
<glyph unicode="&#xe94a;" horiz-adv-x="985" d="M751.385 91.233l10.479 14.378 91.141 10.966zM715.806 109.753l35.579-18.521-27.050-59.218z" />
<glyph unicode="&#xe94b;" horiz-adv-x="985" d="M761.864 105.611l-10.479-14.378-35.579 18.521z" />
<glyph unicode="&#xe95c;" glyph-name="drawer" d="M1016.988 307.99l-256 320c-6.074 7.592-15.266 12.010-24.988 12.010h-448c-9.72 0-18.916-4.418-24.988-12.010l-256-320c-4.538-5.674-7.012-12.724-7.012-19.99v-288c0-35.346 28.654-64 64-64h896c35.348 0 64 28.654 64 64v288c0 7.266-2.472 14.316-7.012 19.99zM960 256h-224l-128-128h-192l-128 128h-224v20.776l239.38 299.224h417.24l239.38-299.224v-20.776zM736 448h-448c-17.672 0-32 14.328-32 32s14.328 32 32 32h448c17.674 0 32-14.328 32-32s-14.326-32-32-32zM800 320h-576c-17.672 0-32 14.326-32 32s14.328 32 32 32h576c17.674 0 32-14.326 32-32s-14.326-32-32-32z" />
<glyph unicode="&#xe95d;" glyph-name="drawer2" d="M1016.988 307.99l-256 320c-6.074 7.592-15.266 12.010-24.988 12.010h-448c-9.72 0-18.916-4.418-24.988-12.010l-256-320c-4.538-5.674-7.012-12.724-7.012-19.99v-288c0-35.346 28.654-64 64-64h896c35.348 0 64 28.654 64 64v288c0 7.266-2.472 14.316-7.012 19.99zM960 256h-224l-128-128h-192l-128 128h-224v20.776l239.38 299.224h417.24l239.38-299.224v-20.776z" />
<glyph unicode="&#xe991;" glyph-name="wrench" d="M1002.934 142.124l-460.552 394.76c21.448 40.298 33.618 86.282 33.618 135.116 0 159.058-128.942 288-288 288-29.094 0-57.172-4.332-83.646-12.354l166.39-166.39c24.89-24.89 24.89-65.62 0-90.51l-101.49-101.49c-24.89-24.89-65.62-24.89-90.51 0l-166.39 166.39c-8.022-26.474-12.354-54.552-12.354-83.646 0-159.058 128.942-288 288-288 48.834 0 94.818 12.17 135.116 33.62l394.76-460.552c22.908-26.724 62.016-28.226 86.904-3.338l101.492 101.492c24.888 24.888 23.386 63.994-3.338 86.902z" />
<glyph unicode="&#xe993;" glyph-name="equalizer2" d="M896 512h16c26.4 0 48 21.6 48 48v160c0 26.4-21.6 48-48 48h-16v192h-128v-192h-16c-26.4 0-48-21.6-48-48v-160c0-26.4 21.6-48 48-48h16v-576h128v576zM768 704h128v-128h-128v128zM592 128c26.4 0 48 21.6 48 48v160c0 26.4-21.6 48-48 48h-16v576h-128v-576h-16c-26.4 0-48-21.6-48-48v-160c0-26.4 21.6-48 48-48h16v-192h128v192h16zM448 320h128v-128h-128v128zM272 512c26.4 0 48 21.6 48 48v160c0 26.4-21.6 48-48 48h-16v192h-128v-192h-16c-26.4 0-48-21.6-48-48v-160c0-26.4 21.6-48 48-48h16v-576h128v576h16zM128 704h128v-128h-128v128z" />
<glyph unicode="&#xe995;" glyph-name="cogs" d="M363.722 237.948l41.298 57.816-45.254 45.256-57.818-41.296c-10.722 5.994-22.204 10.774-34.266 14.192l-11.682 70.084h-64l-11.68-70.086c-12.062-3.418-23.544-8.198-34.266-14.192l-57.818 41.298-45.256-45.256 41.298-57.816c-5.994-10.72-10.774-22.206-14.192-34.266l-70.086-11.682v-64l70.086-11.682c3.418-12.060 8.198-23.544 14.192-34.266l-41.298-57.816 45.254-45.256 57.818 41.296c10.722-5.994 22.204-10.774 34.266-14.192l11.682-70.084h64l11.68 70.086c12.062 3.418 23.544 8.198 34.266 14.192l57.818-41.296 45.254 45.256-41.298 57.816c5.994 10.72 10.774 22.206 14.192 34.266l70.088 11.68v64l-70.086 11.682c-3.418 12.060-8.198 23.544-14.192 34.266zM224 96c-35.348 0-64 28.654-64 64s28.652 64 64 64 64-28.654 64-64-28.652-64-64-64zM1024 576v64l-67.382 12.25c-1.242 8.046-2.832 15.978-4.724 23.79l57.558 37.1-24.492 59.128-66.944-14.468c-4.214 6.91-8.726 13.62-13.492 20.13l39.006 56.342-45.256 45.254-56.342-39.006c-6.512 4.766-13.22 9.276-20.13 13.494l14.468 66.944-59.128 24.494-37.1-57.558c-7.812 1.892-15.744 3.482-23.79 4.724l-12.252 67.382h-64l-12.252-67.382c-8.046-1.242-15.976-2.832-23.79-4.724l-37.098 57.558-59.128-24.492 14.468-66.944c-6.91-4.216-13.62-8.728-20.13-13.494l-56.342 39.006-45.254-45.254 39.006-56.342c-4.766-6.51-9.278-13.22-13.494-20.13l-66.944 14.468-24.492-59.128 57.558-37.1c-1.892-7.812-3.482-15.742-4.724-23.79l-67.384-12.252v-64l67.382-12.25c1.242-8.046 2.832-15.978 4.724-23.79l-57.558-37.1 24.492-59.128 66.944 14.468c4.216-6.91 8.728-13.618 13.494-20.13l-39.006-56.342 45.254-45.256 56.342 39.006c6.51-4.766 13.22-9.276 20.13-13.492l-14.468-66.944 59.128-24.492 37.102 57.558c7.81-1.892 15.742-3.482 23.788-4.724l12.252-67.384h64l12.252 67.382c8.044 1.242 15.976 2.832 23.79 4.724l37.1-57.558 59.128 24.492-14.468 66.944c6.91 4.216 13.62 8.726 20.13 13.492l56.342-39.006 45.256 45.256-39.006 56.342c4.766 6.512 9.276 13.22 13.492 20.13l66.944-14.468 24.492 59.13-57.558 37.1c1.892 7.812 3.482 15.742 4.724 23.79l67.382 12.25zM672 468.8c-76.878 0-139.2 62.322-139.2 139.2s62.32 139.2 139.2 139.2 139.2-62.322 139.2-139.2c0-76.878-62.32-139.2-139.2-139.2z" />
<glyph unicode="&#xe997;" glyph-name="magic-wand" d="M256 768l-128 128h-64v-64l128-128zM320 960h64v-128h-64zM576 640h128v-64h-128zM640 832v64h-64l-128-128 64-64zM0 640h128v-64h-128zM320 384h64v-128h-64zM64 384v-64h64l128 128-64 64zM1010 78l-636.118 636.118c-18.668 18.668-49.214 18.668-67.882 0l-60.118-60.118c-18.668-18.668-18.668-49.214 0-67.882l636.118-636.118c18.668-18.668 49.214-18.668 67.882 0l60.118 60.118c18.668 18.668 18.668 49.214 0 67.882zM480 416l-192 192 64 64 192-192-64-64z" />
<glyph unicode="&#xe9b5;" glyph-name="power" d="M384 960l-384-512h384l-256-512 896 640h-512l384 384z" />
<glyph unicode="&#xe9b8;" glyph-name="clipboard" d="M928 832h-288c0 70.692-57.306 128-128 128-70.692 0-128-57.308-128-128h-288c-17.672 0-32-14.328-32-32v-832c0-17.674 14.328-32 32-32h832c17.674 0 32 14.326 32 32v832c0 17.672-14.326 32-32 32zM512 896c35.346 0 64-28.654 64-64s-28.654-64-64-64c-35.346 0-64 28.654-64 64s28.654 64 64 64zM896 0h-768v768h128v-96c0-17.672 14.328-32 32-32h448c17.674 0 32 14.328 32 32v96h128v-768zM448 101.49l-205.254 237.254 58.508 58.51 146.746-114.744 274.742 242.744 58.514-58.508z" />
<glyph unicode="&#xea1c;" glyph-name="play3" d="M192 832l640-384-640-384z" />
<glyph unicode="&#xea32;" glyph-name="arrow-up" d="M512 928l-480-480h288v-512h384v512h288z" />
<glyph unicode="&#xea7d;" glyph-name="share" d="M256 320c0 0 58.824 192 384 192v-192l384 256-384 256v-192c-256 0-384-159.672-384-320zM704 192h-576v384h125.876c10.094 11.918 20.912 23.334 32.488 34.18 43.964 41.19 96.562 72.652 156.114 93.82h-442.478v-640h832v268.624l-128-85.334v-55.29z" />
</font>
</defs>
</svg>
